<?xml version="1.0" encoding="UTF-8" standalone="no"?>
<svg
   xmlns:dc="http://purl.org/dc/elements/1.1/"
   xmlns:cc="http://creativecommons.org/ns#"
   xmlns:rdf="http://www.w3.org/1999/02/22-rdf-syntax-ns#"
   xmlns:svg="http://www.w3.org/2000/svg"
   xmlns="http://www.w3.org/2000/svg"
   xmlns:sodipodi="http://sodipodi.sourceforge.net/DTD/sodipodi-0.dtd"
   xmlns:inkscape="http://www.inkscape.org/namespaces/inkscape"
   xml:space="preserve"
   enable-background="new 0 0 707.1 200"
   viewBox="0 0 707.1 200"
   height="200px"
   width="707.1px"
   y="0px"
   x="0px"
   id="Warstwa_1"
   version="1.1"
   sodipodi:docname="logo.svg"
   inkscape:version="0.92.3 (2405546, 2018-03-11)"><sodipodi:namedview
   pagecolor="#ffffff"
   bordercolor="#666666"
   borderopacity="1"
   objecttolerance="10"
   gridtolerance="10"
   guidetolerance="10"
   inkscape:pageopacity="0"
   inkscape:pageshadow="2"
   inkscape:window-width="1920"
   inkscape:window-height="1027"
   id="namedview9"
   showgrid="false"
   inkscape:zoom="1.3000125"
   inkscape:cx="459.98641"
   inkscape:cy="138.56419"
   inkscape:window-x="-8"
   inkscape:window-y="-8"
   inkscape:window-maximized="1"
   inkscape:current-layer="flowRoot844" /><metadata
   id="metadata37"><rdf:RDF><cc:Work
       rdf:about=""><dc:format>image/svg+xml</dc:format><dc:type
         rdf:resource="http://purl.org/dc/dcmitype/StillImage" /><dc:title /></cc:Work></rdf:RDF></metadata><defs
   id="defs35" />

<polygon
   id="polygon4"
   points="86.6,133.3 57.7,116.7 57.7,83.3 86.6,66.7 115.5,83.3 144.3,66.7 86.6,33.3 28.9,66.7 28.9,133.3   86.6,166.7 144.3,133.3 115.5,116.7 "
   fill="#FFFFFF" />



<polygon
   id="polygon12"
   points="86.6,100 0,50 0,150 "
   fill-opacity="0" />



<g
   id="flowRoot844"
   style="font-style:normal;font-weight:normal;font-size:113.33365631px;line-height:1.25;font-family:sans-serif;letter-spacing:0px;word-spacing:0px;fill:#000000;fill-opacity:1;stroke:none"
   transform="matrix(1,0,0,1.7363921,-6.9230103,-61.070084)"
   aria-label="SlipStream"><path
     d="m 661.56829,72.435034 q 3.76303,-5.755224 8.90953,-8.743514 5.20183,-3.043629 11.39977,-3.043629 10.68037,0 16.26958,6.585306 5.5892,6.585305 5.5892,19.14719 V 124.12138 H 683.81444 V 91.803579 q 0.0553,-0.719403 0.0553,-1.494145 0.0553,-0.774742 0.0553,-2.213548 0,-6.585305 -1.93685,-9.518256 -1.93686,-2.98829 -6.25328,-2.98829 -5.64454,0 -8.74351,4.648451 -3.04363,4.648451 -3.15431,13.447304 V 124.12138 H 643.91524 V 91.803579 q 0,-10.292998 -1.77084,-13.225949 -1.77084,-2.98829 -6.30861,-2.98829 -5.69989,0 -8.79885,4.70379 -3.09897,4.64845 -3.09897,13.336626 V 124.12138 H 604.01604 V 62.142036 h 19.92193 v 9.075547 q 3.65235,-5.257177 8.35614,-7.913434 4.75913,-2.656258 10.45902,-2.656258 6.41929,0 11.34443,3.098967 4.92515,3.098968 7.47073,8.688176 z M 555.31797,96.230675 q -6.19794,0 -9.35224,2.102871 -3.09897,2.102874 -3.09897,6.197934 0,3.76303 2.49024,5.92124 2.54558,2.10287 7.02802,2.10287 5.5892,0 9.40758,-3.98439 3.81837,-4.03972 3.81837,-10.071638 v -2.268887 z m 30.27027,-7.470724 v 35.361429 h -19.97727 v -9.18622 q -3.98439,5.64454 -8.96487,8.24546 -4.98049,2.54558 -12.11918,2.54558 -9.62893,0 -15.66085,-5.58921 -5.97658,-5.64454 -5.97658,-14.60941 0,-10.901727 7.47072,-15.992888 7.52607,-5.09116 23.57429,-5.09116 h 11.67647 v -1.549484 q 0,-4.703789 -3.7077,-6.861998 -3.70769,-2.213548 -11.56579,-2.213548 -6.36395,0 -11.84248,1.27279 -5.47853,1.27279 -10.18232,3.81837 V 63.802197 q 6.36395,-1.549483 12.78324,-2.324225 6.41929,-0.830081 12.83858,-0.830081 16.76763,0 24.18301,6.640644 7.47073,6.585305 7.47073,21.471416 z m -72.99175,4.205741 v 5.644547 H 466.278 q 0.7194,6.972681 5.03582,10.459011 4.31642,3.48634 12.06383,3.48634 6.25328,0 12.78324,-1.82618 6.58531,-1.88151 13.50265,-5.64454 v 15.27348 q -7.02802,2.65626 -14.05603,3.98438 -7.02802,1.38347 -14.05603,1.38347 -16.82297,0 -26.17521,-8.52216 -9.2969,-8.5775 -9.2969,-24.016993 0,-15.162804 9.13089,-23.85098 9.18622,-8.688176 25.23444,-8.688176 14.60942,0 23.35293,8.798854 8.79886,8.798853 8.79886,23.518947 z m -20.36464,-6.585305 q 0,-5.644548 -3.32033,-9.075547 -3.26498,-3.486338 -8.5775,-3.486338 -5.75522,0 -9.35224,3.264983 -3.59701,3.209645 -4.48243,9.296902 z M 440.76687,79.02034 q -2.60092,-1.217452 -5.20184,-1.770839 -2.54558,-0.608726 -5.14649,-0.608726 -7.63675,0 -11.78715,4.925145 -4.09506,4.869805 -4.09506,14.000691 V 124.12138 H 394.72507 V 62.142036 h 19.81126 v 10.182321 q 3.81837,-6.087257 8.74351,-8.854192 4.98049,-2.822274 11.89782,-2.822274 0.9961,0 2.15821,0.110678 1.16212,0.05534 3.37566,0.332032 z m -78.6363,-34.47601 v 17.597706 h 20.41998 v 14.166707 h -20.41998 v 26.285887 q 0,4.31641 1.7155,5.8659 1.7155,1.49414 6.80666,1.49414 h 10.18232 v 14.16671 h -16.98898 q -11.7318,0 -16.65695,-4.86981 -4.8698,-4.92514 -4.8698,-16.65694 V 76.308743 h -9.85029 V 62.142036 h 9.85029 V 44.54433 Z m -44.93503,-0.44271 v 17.487029 q -6.80666,-3.043628 -13.28129,-4.593112 -6.47463,-1.549483 -12.22985,-1.549483 -7.63674,0 -11.2891,2.10287 -3.65235,2.102871 -3.65235,6.529967 0,3.320322 2.4349,5.201837 2.49024,1.826178 8.96487,3.154306 l 9.07555,1.826177 q 13.77933,2.766935 19.5899,8.411483 5.81056,5.644547 5.81056,16.048222 0,13.668664 -8.13479,20.364644 -8.07945,6.64064 -24.7364,6.64064 -7.85809,0 -15.77153,-1.49414 -7.91343,-1.49415 -15.82687,-4.4271 v -17.98508 q 7.91344,4.20574 15.27349,6.36395 7.41538,2.10287 14.27738,2.10287 6.97268,0 10.68037,-2.32422 3.70769,-2.32423 3.70769,-6.64064 0,-3.873714 -2.54558,-5.976584 -2.49024,-2.102871 -10.0163,-3.763032 l -8.24547,-1.826177 q -12.39587,-2.656257 -18.15109,-8.466821 -5.69989,-5.810563 -5.69989,-15.660852 0,-12.34053 7.96877,-18.981174 7.96878,-6.640644 22.91023,-6.640644 6.80666,0 14.00069,1.051436 7.19403,0.996096 14.88611,3.043628 z m -119.80829,71.05489 v 32.53916 H 177.576 V 62.142036 h 19.81125 v 9.075547 q 4.09506,-5.423193 9.07555,-7.968773 4.98048,-2.600919 11.45511,-2.600919 11.45511,0 18.81516,9.130886 7.36004,9.075546 7.36004,23.40827 0,14.332723 -7.36004,23.463613 -7.36005,9.07554 -18.81516,9.07554 -6.47463,0 -11.45511,-2.54558 -4.98049,-2.60092 -9.07555,-8.02411 z m 13.17061,-40.120557 q -6.36395,0 -9.79495,4.70379 -3.37566,4.64845 -3.37566,13.447304 0,8.798853 3.37566,13.502643 3.431,4.64845 9.79495,4.64845 6.36395,0 9.68427,-4.64845 3.37566,-4.64845 3.37566,-13.502643 0,-8.854192 -3.37566,-13.502643 -3.32032,-4.648451 -9.68427,-4.648451 z m -71.9403,-12.893917 h 19.81125 v 61.979344 h -19.81125 z m 0,-24.127673 h 19.81125 v 16.158901 h -19.81125 z m -38.958442,0 H 119.47037 V 124.12138 H 99.659118 Z M 76.361522,44.10162 v 17.487029 q -6.80666,-3.043628 -13.281288,-4.593112 -6.474628,-1.549483 -12.229853,-1.549483 -7.63674,0 -11.289094,2.10287 -3.652355,2.102871 -3.652355,6.529967 0,3.320322 2.434903,5.201837 2.490242,1.826178 8.964869,3.154306 l 9.075547,1.826177 q 13.779336,2.766935 19.5899,8.411483 5.810563,5.644547 5.810563,16.048222 0,13.668664 -8.134789,20.364644 -8.07945,6.64064 -24.736398,6.64064 -7.858096,0 -15.77153,-1.49414 -7.913434,-1.49415 -15.826868,-4.4271 v -17.98508 q 7.913434,4.20574 15.273481,6.36395 7.415386,2.10287 14.277385,2.10287 6.972676,0 10.680369,-2.32422 3.707693,-2.32423 3.707693,-6.64064 0,-3.873714 -2.54558,-5.976584 -2.490242,-2.102871 -10.016305,-3.763032 L 40.446706,89.756047 Q 28.050837,87.09979 22.295612,81.289226 16.595726,75.478663 16.595726,65.628374 q 0,-12.34053 7.968773,-18.981174 7.968773,-6.640644 22.910222,-6.640644 6.80666,0 14.00069,1.051436 7.194031,0.996096 14.886111,3.043628 z"
     style="font-style:normal;font-variant:normal;font-weight:bold;font-stretch:normal;font-size:113.33365631px;font-family:'DejaVu Sans';-inkscape-font-specification:'DejaVu Sans Bold';letter-spacing:0px;fill:#666666"
     id="path884"
     inkscape:connector-curvature="0" /></g></svg>